<?xml version="1.0" encoding="iso-8859-1"?>
<!-- Generator: Adobe Illustrator 16.0.3, SVG Export Plug-In . SVG Version: 6.00 Build 0)  -->
<!DOCTYPE svg PUBLIC "-//W3C//DTD SVG 1.1//EN" "http://www.w3.org/Graphics/SVG/1.1/DTD/svg11.dtd">
<svg version="1.1" xmlns="http://www.w3.org/2000/svg" xmlns:xlink="http://www.w3.org/1999/xlink" x="0px" y="0px" width="32px"
	 height="32px" viewBox="0 0 32 32" style="enable-background:new 0 0 32 32; fill:white;" xml:space="preserve">
<g id="ic_x5F_entrar_x5F_ativ_x5F_32_x5F_px">
	<path d="M17,5h8c2.2,0,4,1.8,4,4v14c0,2.2-1.8,4-4,4h-8c-0.55,0-1-0.45-1-1v-1c0-0.55,0.45-1,1-1h8c0.55,0,1-0.45,1-1V9
		c0-0.55-0.45-1-1-1h-8c-0.55,0-1-0.45-1-1V6C16,5.45,16.45,5,17,5z"/>
	<path d="M11.743,7.218C11.334,6.85,11,6.999,11,7.549v4H4c-0.55,0-1,0.45-1,1v6c0,0.55,0.45,1,1,1h7v4
		c0,0.55,0.334,0.699,0.743,0.331l8.514-7.662c0.409-0.368,0.409-0.97,0-1.338L11.743,7.218z"/>
</g>
<g id="Layer_1">
</g>
</svg>
