<?xml version="1.0" encoding="iso-8859-1"?>
<!-- Generator: Adobe Illustrator 16.0.3, SVG Export Plug-In . SVG Version: 6.00 Build 0)  -->
<!DOCTYPE svg PUBLIC "-//W3C//DTD SVG 1.1//EN" "http://www.w3.org/Graphics/SVG/1.1/DTD/svg11.dtd">
<svg version="1.1" xmlns="http://www.w3.org/2000/svg" xmlns:xlink="http://www.w3.org/1999/xlink" x="0px" y="0px" width="32px"
	 height="32px" viewBox="0 0 32 32" style="enable-background:new 0 0 32 32; fill:#ff6671;" xml:space="preserve">
<g id="ic_x5F_palavra_x5F_chave_x5F_32px">
	<path d="M27.177,8.439c-0.709-4.197-5.443-7.064-9.462-6.323c-4.019,0.74-7.14,4.333-6.432,8.533
		c0.152,0.905,0.576,2.32,1.076,3.335L5.062,24.876c-0.269,0.403-0.422,1.127-0.341,1.61l0.469,2.778
		c0.082,0.481,0.526,0.808,0.988,0.721l2.138-0.394c0.462-0.084,1.048-0.49,1.303-0.902l0.681-1.101l1.59-0.661l-0.354-2.263
		l0.482-0.756l0.024-0.028l2.099-0.008l-0.463-1.662l0.432-0.879l1.364,0.69l0.484-0.785l-0.507-1.911l0.549-0.4l1.127,0.414
		l0.726-1.179c1.108,0.196,2.696,0.13,3.636-0.042C25.508,17.378,27.885,12.641,27.177,8.439z M22.522,11.744
		c-1.187,1.593-2.456,0.449-4.034-0.704c-1.579-1.155-3.011-1.866-1.906-3.515c1.105-1.65,3.282-2.054,4.86-0.896
		C23.232,7.943,23.873,9.934,22.522,11.744z"/>
</g>
<g id="Layer_1">
</g>
</svg>
