<?xml version="1.0" encoding="iso-8859-1"?>
<!-- Generator: Adobe Illustrator 16.0.3, SVG Export Plug-In . SVG Version: 6.00 Build 0)  -->
<!DOCTYPE svg PUBLIC "-//W3C//DTD SVG 1.1//EN" "http://www.w3.org/Graphics/SVG/1.1/DTD/svg11.dtd">
<svg version="1.1" xmlns="http://www.w3.org/2000/svg" xmlns:xlink="http://www.w3.org/1999/xlink" x="0px" y="0px" width="32px"
	 height="32px" viewBox="0 0 32 32" style="enable-background:new 0 0 32 32; fill:#ff6671;;" xml:space="preserve">
<g id="ic_x5F_utilizador_x5F_32px">
	<g>
		<path style="fill-rule:evenodd;clip-rule:evenodd;" d="M23.355,22.759c-3.375-1.137-4.5-2.246-4.5-3.559
			c0-2.287,0.698-0.89,1.347-3.706c0.294-1.275,0.808-1.408,1.231-2.912c0.432-1.17-0.297-1.151-0.297-1.151
			s0.152-1.363,0.152-2.416c0-2.055-0.733-4.689-5.281-4.695h-0.016c-4.547,0.006-5.281,2.641-5.281,4.695
			c0,1.053,0.152,2.416,0.152,2.416s-0.729-0.019-0.297,1.151c0.424,1.504,0.938,1.637,1.231,2.912
			c0.649,2.816,1.348,1.419,1.348,3.706c0,1.313-1.126,2.422-4.501,3.559C5.196,23.919,3,24.163,3,26.087C3,26.807,3,29,3,29h26
			c0,0,0-2.193,0-2.913C29,24.163,26.804,23.919,23.355,22.759z"/>
	</g>
</g>
<g id="Layer_1">
</g>
</svg>
