<?xml version="1.0" encoding="iso-8859-1"?>
<!-- Generator: Adobe Illustrator 16.0.3, SVG Export Plug-In . SVG Version: 6.00 Build 0)  -->
<!DOCTYPE svg PUBLIC "-//W3C//DTD SVG 1.1//EN" "http://www.w3.org/Graphics/SVG/1.1/DTD/svg11.dtd">
<svg version="1.1" xmlns="http://www.w3.org/2000/svg" xmlns:xlink="http://www.w3.org/1999/xlink" x="0px" y="0px" width="80px"
	 height="80px" viewBox="0 0 32 32" style="enable-background:new 0 0 32 32; fill:#f23535;" xml:space="preserve">
<g id="ic_x5F_dom_x5F_func_x5F_exec_x5F_32px">
	<path d="M29.123,15.544l-3.229-1.608C25.402,13.691,25,13.94,25,14.49V15h-5.142c-0.29-1.119-1.048-2.039-2.057-2.552l0.425-1.941
		c0.118-0.538,0.551-1.276,0.961-1.642l2.288-2.036l0.349,0.405c0.358,0.417,0.826,0.344,1.039-0.164l1.399-3.323
		c0.214-0.507-0.048-0.812-0.581-0.676l-3.496,0.886c-0.533,0.135-0.676,0.587-0.317,1.004l0.302,0.351l-2.792,2.474
		c-0.411,0.365-0.845,1.103-0.962,1.64l-0.568,2.59c-1.299,0.05-2.441,0.71-3.135,1.714l-3.447-1.265
		c-0.517-0.189-1.105-0.762-1.311-1.273L6.236,6.888l0.488-0.189c0.513-0.199,0.6-0.664,0.193-1.035L4.255,3.233
		c-0.406-0.371-0.78-0.226-0.832,0.322l-0.335,3.59C3.037,7.693,3.414,7.979,3.928,7.78L4.37,7.609l2.058,5.152
		c0.203,0.511,0.793,1.083,1.309,1.273l4.303,1.578C12.026,15.741,12,15.867,12,16c0,0.246,0.029,0.485,0.072,0.72l-1.614,0.75
		c-0.499,0.231-0.907,0.871-0.907,1.421V25H9.068c-0.55,0-0.799,0.402-0.555,0.895l1.608,3.229c0.245,0.492,0.646,0.492,0.892,0
		l1.608-3.229C12.867,25.402,12.617,25,12.068,25h-0.517l-0.001-4.832c0-0.549,0.408-1.189,0.906-1.421l0.469-0.218
		C13.659,19.42,14.756,20,16,20c0.033,0,0.065-0.01,0.1-0.01l0.764,2.676c0.15,0.529,0.652,1.207,1.113,1.506l5.383,3.486
		l-0.344,0.523c-0.303,0.459-0.104,0.889,0.442,0.955l3.579,0.434c0.547,0.066,0.768-0.27,0.491-0.744l-1.81-3.119
		c-0.275-0.477-0.75-0.489-1.053-0.03l-0.205,0.313l-4.762-3.077c-0.463-0.299-0.964-0.976-1.115-1.505l-0.563-1.975
		c0.901-0.531,1.569-1.397,1.839-2.435H25v0.491c0,0.549,0.402,0.799,0.895,0.554l3.229-1.608
		C29.615,16.19,29.615,15.789,29.123,15.544z"/>
</g>
<g id="Layer_1">
</g>
</svg>
