<?xml version="1.0" encoding="iso-8859-1"?>
<!-- Generator: Adobe Illustrator 16.0.3, SVG Export Plug-In . SVG Version: 6.00 Build 0)  -->
<!DOCTYPE svg PUBLIC "-//W3C//DTD SVG 1.1//EN" "http://www.w3.org/Graphics/SVG/1.1/DTD/svg11.dtd">
<svg version="1.1" xmlns="http://www.w3.org/2000/svg" xmlns:xlink="http://www.w3.org/1999/xlink" x="0px" y="0px" width="32px"
	 height="32px" viewBox="0 0 32 32" style="enable-background:new 0 0 32 32; fill:#03a688;" xml:space="preserve">
<g id="ic_x5F_info_x5F_32_x5F_px">
	<g>
		<path d="M28,0H4C1.8,0,0,1.8,0,4v24c0,2.2,1.8,4,4,4h24c2.2,0,4-1.8,4-4V4C32,1.8,30.2,0,28,0z M13.613,6.105
			c0.126-0.26,0.298-0.473,0.518-0.636c0.217-0.162,0.475-0.284,0.767-0.363c0.294-0.078,0.612-0.119,0.956-0.119
			c0.326,0,0.637,0.041,0.936,0.119c0.297,0.079,0.558,0.201,0.781,0.363c0.223,0.163,0.402,0.376,0.537,0.636
			c0.136,0.26,0.203,0.572,0.203,0.935c0,0.353-0.067,0.661-0.203,0.921c-0.135,0.26-0.314,0.475-0.537,0.641
			c-0.224,0.168-0.484,0.294-0.781,0.377c-0.299,0.083-0.609,0.126-0.936,0.126c-0.344,0-0.662-0.042-0.956-0.126
			c-0.292-0.083-0.55-0.209-0.767-0.377c-0.22-0.167-0.392-0.381-0.518-0.641c-0.125-0.26-0.189-0.568-0.189-0.921
			C13.424,6.677,13.488,6.365,13.613,6.105z M20.543,27h-9.086v-1.521h0.335c0.214,0,0.438-0.021,0.677-0.063
			c0.237-0.042,0.455-0.127,0.656-0.259c0.199-0.13,0.367-0.315,0.502-0.558s0.203-0.568,0.203-0.979V14.94
			c0-0.382-0.068-0.687-0.203-0.914c-0.135-0.229-0.305-0.405-0.509-0.53c-0.204-0.126-0.425-0.208-0.663-0.245
			c-0.236-0.037-0.459-0.055-0.663-0.055h-0.335v-1.522h6.715v11.947c0,0.41,0.067,0.736,0.201,0.979
			c0.135,0.242,0.303,0.428,0.502,0.558c0.201,0.132,0.422,0.217,0.664,0.259c0.242,0.041,0.465,0.063,0.67,0.063h0.334V27z"/>
	</g>
</g>
<g id="Layer_1">
</g>
</svg>
