<?xml version="1.0" encoding="iso-8859-1"?>
<!-- Generator: Adobe Illustrator 16.0.3, SVG Export Plug-In . SVG Version: 6.00 Build 0)  -->
<!DOCTYPE svg PUBLIC "-//W3C//DTD SVG 1.1//EN" "http://www.w3.org/Graphics/SVG/1.1/DTD/svg11.dtd">
<svg version="1.1" xmlns="http://www.w3.org/2000/svg" xmlns:xlink="http://www.w3.org/1999/xlink" x="0px" y="0px" width="80px"
	 height="80px" viewBox="0 0 32 32" style="enable-background:new 0 0 32 32; fill:#f23535;" xml:space="preserve">
<g id="ic_x5F_dom_x5F_memoria_x5F_32px">
	<g>
		<g>
			<path style="fill:none;" d="M15.442,12.152c0.189,0.06,0.374,0.096,0.558,0.113l0,0C15.817,12.248,15.629,12.21,15.442,12.152z"
				/>
			<path style="fill:none;" d="M16,7.41c-0.113-0.063-0.225-0.12-0.339-0.168C15.774,7.292,15.888,7.347,16,7.41L16,7.41z"/>
			<path style="fill:none;" d="M21.106,8.983c0.024-0.211,0.029-0.597-0.214-0.818c-0.125-0.114-0.301-0.171-0.523-0.171
				c-0.438,0-0.934,0.225-1.369,0.591v2.671c0.476-0.089,0.988-0.384,1.398-0.836C20.793,9.986,21.051,9.462,21.106,8.983z"/>
			<path style="fill:none;" d="M20.077,11.917c-0.164,0.085-0.33,0.156-0.495,0.21C19.748,12.07,19.912,12.004,20.077,11.917z"/>
			<path style="fill:none;" d="M19,7.382c0.225-0.122,0.453-0.216,0.68-0.283C19.453,7.163,19.225,7.26,19,7.382z"/>
			<path style="fill:none;" d="M14.063,8.164c-0.244,0.222-0.239,0.608-0.215,0.819c0.056,0.479,0.313,1.003,0.707,1.436
				c0.424,0.467,0.958,0.766,1.445,0.843V8.627c-0.445-0.391-0.962-0.634-1.415-0.634C14.363,7.993,14.187,8.051,14.063,8.164z"/>
			<path style="fill:none;" d="M14.717,11.817c-0.125-0.074-0.251-0.147-0.372-0.24C14.465,11.671,14.591,11.742,14.717,11.817z"/>
			<path style="fill:none;" d="M19.693,7.095c0.229-0.066,0.456-0.102,0.676-0.102C20.15,6.993,19.922,7.032,19.693,7.095z"/>
			<path style="fill:none;" d="M20.615,11.572c-0.112,0.086-0.229,0.155-0.346,0.225C20.387,11.726,20.503,11.659,20.615,11.572z"/>
			<path style="fill:none;" d="M19,12.26L19,12.26c0.179-0.021,0.357-0.058,0.541-0.118C19.359,12.199,19.178,12.239,19,12.26z"/>
			<path style="fill:none;" d="M15.092,7.058c0.062,0.014,0.124,0.024,0.186,0.043C15.215,7.083,15.154,7.071,15.092,7.058z"/>
			<path style="fill:none;" d="M15.421,12.145c-0.177-0.056-0.354-0.129-0.529-0.219C15.067,12.019,15.244,12.088,15.421,12.145z"/>
			<path d="M24.252,15.2L24.252,15.2c-0.715-0.413-1.637-0.166-2.05,0.549c0,0-1.167,1.841-1.64,2.439
				C20.063,18.82,19.775,19,19.5,19S19,18.775,19,18.5v-5.239c-0.092,0.007-0.185,0.034-0.275,0.034
				c-0.453,0-0.875-0.093-1.248-0.272c-0.374,0.18-0.795,0.272-1.247,0.272c-0.076,0-0.153-0.023-0.229-0.029V14.5
				c0-0.825-0.675-1.5-1.5-1.5S13,13.675,13,14.5v1c0-0.825-0.675-1.5-1.5-1.5S10,14.675,10,15.5v1c0-0.825-0.675-1.5-1.5-1.5
				S7,15.675,7,16.5v10C7,27.325,7.675,28,8.5,28c0.068,0,0.134-0.012,0.2-0.021V28h8.8c0.803,0,1.426-0.699,2.301-2.091
				c1.199-1.909,5-8.661,5-8.661C25.213,16.534,24.966,15.612,24.252,15.2z"/>
			<path d="M18.979,6.288C18.874,5.563,18.252,5,17.5,5c-0.757,0-1.381,0.57-1.48,1.302c0.519,0.216,1.019,0.536,1.457,0.952
				C17.928,6.826,18.443,6.503,18.979,6.288z"/>
			<path d="M19.541,12.142c0.014-0.004,0.027-0.01,0.041-0.015c0.165-0.055,0.331-0.125,0.495-0.21
				c0.065-0.035,0.128-0.079,0.192-0.119c0.117-0.07,0.233-0.139,0.346-0.225c0.182-0.142,0.359-0.299,0.523-0.48
				c1.115-1.226,1.306-2.868,0.426-3.667c-0.32-0.292-0.739-0.431-1.195-0.431c-0.22,0-0.447,0.036-0.676,0.102
				c-0.005,0.001-0.009,0.003-0.014,0.004C19.453,7.166,19.225,7.26,19,7.382c-0.369,0.2-0.729,0.466-1.047,0.814
				c-0.188,0.208-0.341,0.43-0.477,0.656C17.342,8.626,17.189,8.404,17,8.196c-0.303-0.334-0.647-0.588-1-0.786l0,0
				c-0.112-0.063-0.226-0.119-0.339-0.168c-0.128-0.054-0.255-0.105-0.383-0.141c-0.062-0.019-0.124-0.029-0.186-0.043
				c-0.171-0.035-0.342-0.064-0.506-0.064c-0.457,0-0.875,0.14-1.196,0.431c-0.88,0.799-0.689,2.441,0.425,3.667
				c0.166,0.183,0.345,0.343,0.53,0.485c0.121,0.093,0.247,0.166,0.372,0.24c0.059,0.036,0.116,0.077,0.175,0.108
				c0.175,0.09,0.352,0.164,0.529,0.219c0.007,0.002,0.014,0.005,0.021,0.007c0.188,0.058,0.375,0.096,0.558,0.113l0,0
				c0.076,0.007,0.155,0.029,0.229,0.029c0.457,0,0.876-0.14,1.196-0.431c0.02-0.018,0.032-0.042,0.051-0.062
				c0.02,0.019,0.031,0.043,0.052,0.062c0.321,0.292,0.739,0.431,1.196,0.431c0.09,0,0.184-0.024,0.275-0.035l0,0
				C19.178,12.239,19.359,12.199,19.541,12.142z M19,8.584c0.436-0.366,0.932-0.591,1.369-0.591c0.223,0,0.398,0.058,0.523,0.171
				c0.243,0.221,0.238,0.607,0.214,0.818c-0.056,0.479-0.313,1.003-0.708,1.437c-0.41,0.452-0.923,0.747-1.398,0.836V8.584z
				 M16,11.262c-0.488-0.077-1.021-0.376-1.445-0.843c-0.394-0.433-0.651-0.957-0.707-1.436c-0.024-0.211-0.029-0.597,0.215-0.819
				c0.125-0.113,0.3-0.171,0.523-0.171c0.453,0,0.969,0.243,1.415,0.634V11.262z"/>
			<path style="fill:#FFFFFF;" d="M14.892,11.926c-0.06-0.031-0.117-0.073-0.175-0.108C14.776,11.853,14.833,11.895,14.892,11.926z"
				/>
			<path style="fill:#FFFFFF;" d="M14.345,11.577c-0.185-0.143-0.364-0.302-0.53-0.485C13.981,11.275,14.16,11.436,14.345,11.577z"
				/>
			<path style="fill:#FFFFFF;" d="M15.442,12.152c-0.007-0.002-0.014-0.005-0.021-0.007C15.428,12.147,15.435,12.15,15.442,12.152z"
				/>
			<path style="fill:#FFFFFF;" d="M14.585,6.993c0.164,0,0.335,0.029,0.506,0.064C14.92,7.02,14.75,6.993,14.585,6.993z"/>
			<path style="fill:#FFFFFF;" d="M19.582,12.127c-0.014,0.005-0.027,0.01-0.041,0.015C19.555,12.138,19.568,12.131,19.582,12.127z"
				/>
			<path style="fill:#FFFFFF;" d="M15.277,7.101c0.128,0.036,0.255,0.087,0.383,0.141C15.533,7.186,15.405,7.138,15.277,7.101z"/>
			<path style="fill:#FFFFFF;" d="M20.27,11.797c-0.064,0.04-0.127,0.084-0.192,0.119C20.143,11.882,20.205,11.836,20.27,11.797z"/>
			<path style="fill:#FFFFFF;" d="M19.68,7.099c0.005-0.001,0.009-0.003,0.014-0.004C19.688,7.096,19.685,7.098,19.68,7.099z"/>
			<path style="fill:#FFFFFF;" d="M21.139,11.092c-0.164,0.181-0.342,0.338-0.523,0.48C20.798,11.432,20.975,11.273,21.139,11.092z"
				/>
		</g>
	</g>
</g>
<g id="Layer_1">
</g>
</svg>
