<?xml version="1.0" encoding="iso-8859-1"?>
<!-- Generator: Adobe Illustrator 16.0.3, SVG Export Plug-In . SVG Version: 6.00 Build 0)  -->
<!DOCTYPE svg PUBLIC "-//W3C//DTD SVG 1.1//EN" "http://www.w3.org/Graphics/SVG/1.1/DTD/svg11.dtd">
<svg version="1.1" xmlns="http://www.w3.org/2000/svg" xmlns:xlink="http://www.w3.org/1999/xlink" x="0px" y="0px" width="80px"
	 height="80px" viewBox="0 0 32 32" style="enable-background:new 0 0 32 32; fill:#f23535;" xml:space="preserve">
<g id="ic_x5F_dom_x5F_ve_x5F_32px">
	<rect x="13" y="13" width="6" height="6"/>
	<path d="M7,13H5H3v2v2v2h2h2h2v-2v-2v-2H7z M7,17H5v-2h2V17z"/>
	<path d="M17,3h-2h-2v2v2v2h2h2h2V7V5V3H17z M17,7h-2V5h2V7z"/>
	<path d="M17,23h-2h-2v2v2v2h2h2h2v-2v-2v-2H17z M17,27h-2v-2h2V27z"/>
	<path d="M27,13h-2h-2v2v2v2h2h2h2v-2v-2v-2H27z M27,17h-2v-2h2V17z"/>
</g>
<g id="Layer_1">
</g>
</svg>
