<?xml version="1.0" encoding="iso-8859-1"?>
<!-- Generator: Adobe Illustrator 16.0.3, SVG Export Plug-In . SVG Version: 6.00 Build 0)  -->
<!DOCTYPE svg PUBLIC "-//W3C//DTD SVG 1.1//EN" "http://www.w3.org/Graphics/SVG/1.1/DTD/svg11.dtd">
<svg version="1.1" xmlns="http://www.w3.org/2000/svg" xmlns:xlink="http://www.w3.org/1999/xlink" x="0px" y="0px" width="80px"
	 height="80px" viewBox="0 0 32 32" style="enable-background:new 0 0 32 32; fill:#f23535;" xml:space="preserve">
<g id="ic_x5F_dom_x5F_lingagem_x5F_32px">
	<g>
		<path d="M21.24,14.36c-0.264-0.35-0.594-0.614-0.98-0.781c-0.383-0.168-0.824-0.252-1.313-0.252c-0.575,0-1.055,0.113-1.427,0.335
			c-0.214,0.13-0.404,0.285-0.57,0.468l0.007-0.085c0.015-0.179,0.026-0.367,0.04-0.572c0.011-0.203,0.017-0.382,0.017-0.534v-2.646
			h-3.761v1.152h0.256c0.135,0,0.271,0.011,0.401,0.031c0.11,0.021,0.206,0.058,0.282,0.107c0.074,0.053,0.134,0.123,0.179,0.214
			c0.047,0.097,0.071,0.233,0.071,0.406v7.404c0,0.188-0.025,0.335-0.074,0.438c-0.049,0.1-0.107,0.173-0.182,0.223
			c-0.08,0.054-0.17,0.09-0.273,0.108c-0.096,0.017-0.193,0.021-0.29,0.026c-0.074-0.005-0.147-0.013-0.219-0.034
			c-0.079-0.024-0.152-0.066-0.224-0.127c-0.072-0.061-0.141-0.148-0.207-0.262c-0.07-0.121-0.139-0.277-0.205-0.468L9.729,10.95
			H7.486l-3.15,8.543c-0.08,0.203-0.159,0.369-0.233,0.494c-0.07,0.118-0.144,0.208-0.219,0.27
			c-0.066,0.058-0.136,0.096-0.215,0.115c-0.091,0.025-0.189,0.037-0.294,0.037H3v1.159h4.124v-1.159h-0.8
			c-0.063,0-0.123-0.009-0.183-0.026c-0.055-0.017-0.105-0.042-0.148-0.072c-0.034-0.025-0.064-0.06-0.086-0.102
			c-0.022-0.043-0.033-0.093-0.033-0.153c0-0.1,0.018-0.221,0.053-0.36c0.039-0.152,0.076-0.284,0.112-0.394l0.367-1.095h3.198
			l0.457,1.3c0.026,0.074,0.052,0.162,0.078,0.263c0.024,0.09,0.036,0.187,0.036,0.286c0,0.063-0.011,0.118-0.033,0.158
			c-0.023,0.043-0.053,0.079-0.088,0.105c-0.04,0.029-0.083,0.052-0.135,0.065c-0.056,0.017-0.11,0.024-0.161,0.024H8.998v1.159
			h4.254h0.869h2.19l0.354-0.994c0.076,0.115,0.16,0.221,0.248,0.318c0.146,0.166,0.32,0.313,0.518,0.436
			c0.191,0.119,0.412,0.216,0.66,0.284c0.243,0.063,0.512,0.096,0.799,0.096c0.501,0,0.951-0.084,1.34-0.25
			c0.396-0.169,0.732-0.435,1-0.791c0.261-0.346,0.462-0.789,0.597-1.318c0.132-0.519,0.198-1.139,0.198-1.844
			c0-0.704-0.065-1.322-0.195-1.835C21.698,15.144,21.5,14.703,21.24,14.36z M19.426,17.489c0,0.921-0.102,1.631-0.301,2.112
			c-0.18,0.437-0.445,0.641-0.836,0.641c-0.242,0-0.444-0.054-0.603-0.16c-0.159-0.104-0.288-0.268-0.384-0.483
			c-0.103-0.229-0.178-0.521-0.222-0.865c-0.045-0.355-0.068-0.77-0.068-1.229c0-0.483,0.023-0.909,0.068-1.267
			c0.044-0.343,0.118-0.631,0.221-0.853c0.097-0.21,0.22-0.359,0.374-0.459c0.154-0.098,0.356-0.147,0.6-0.147
			c0.401,0,0.672,0.192,0.852,0.604C19.325,15.839,19.426,16.548,19.426,17.489z M7.962,13.711c0.041-0.117,0.079-0.23,0.116-0.341
			c0.037,0.136,0.075,0.271,0.114,0.406c0.053,0.188,0.106,0.371,0.161,0.55c0.054,0.182,0.106,0.354,0.159,0.519l0.672,2.09H6.842
			l0.754-2.158c0.056-0.166,0.114-0.34,0.178-0.521L7.962,13.711z"/>
		<path d="M28.541,19.109l-0.183-0.113l-0.098,0.192c-0.074,0.145-0.173,0.284-0.293,0.413c-0.12,0.128-0.259,0.238-0.421,0.336
			c-0.164,0.096-0.347,0.171-0.543,0.224c-0.197,0.053-0.414,0.081-0.643,0.081c-0.527,0-0.896-0.202-1.127-0.619
			c-0.247-0.447-0.373-1.147-0.373-2.078c0-0.602,0.031-1.104,0.092-1.493c0.059-0.381,0.145-0.688,0.255-0.913
			c0.102-0.208,0.22-0.353,0.351-0.433c0.238-0.147,0.592-0.18,0.783-0.019c0.095,0.081,0.17,0.188,0.228,0.327
			c0.063,0.15,0.108,0.33,0.136,0.537c0.029,0.216,0.045,0.444,0.045,0.679v0.199h0.199c0.396,0,0.715-0.037,0.975-0.112
			c0.268-0.077,0.477-0.179,0.637-0.309c0.164-0.134,0.28-0.294,0.348-0.475C28.969,15.365,29,15.189,29,15.016
			c0-0.247-0.073-0.483-0.219-0.704c-0.143-0.209-0.347-0.39-0.608-0.539c-0.253-0.145-0.57-0.258-0.944-0.34
			c-0.77-0.166-1.848-0.179-2.709,0.089c-0.457,0.143-0.859,0.384-1.197,0.716c-0.334,0.334-0.6,0.778-0.788,1.32
			c-0.186,0.536-0.28,1.209-0.28,2.003c0,0.75,0.092,1.395,0.27,1.915c0.182,0.528,0.441,0.967,0.775,1.302
			c0.334,0.333,0.738,0.575,1.205,0.72c0.455,0.14,0.959,0.211,1.501,0.211c0.498,0,0.937-0.05,1.304-0.15
			c0.377-0.103,0.678-0.233,0.921-0.396c0.251-0.167,0.439-0.36,0.563-0.573c0.124-0.216,0.187-0.435,0.187-0.65
			c0-0.16-0.035-0.315-0.102-0.458C28.805,19.325,28.692,19.201,28.541,19.109z"/>
	</g>
</g>
<g id="Layer_1">
</g>
</svg>
