<?xml version="1.0" encoding="iso-8859-1"?>
<!-- Generator: Adobe Illustrator 16.0.3, SVG Export Plug-In . SVG Version: 6.00 Build 0)  -->
<!DOCTYPE svg PUBLIC "-//W3C//DTD SVG 1.1//EN" "http://www.w3.org/Graphics/SVG/1.1/DTD/svg11.dtd">
<svg version="1.1" xmlns="http://www.w3.org/2000/svg" xmlns:xlink="http://www.w3.org/1999/xlink" x="0px" y="0px" width="80px"
	 height="80px" viewBox="0 0 32 32" style="enable-background:new 0 0 32 32; fill:#f23535;" xml:space="preserve">
<g id="ic_x5F_dom_x5F_atencao_x5F_32px">
	<path d="M16,3C8.82,3,3,8.82,3,16s5.82,13,13,13s13-5.82,13-13S23.18,3,16,3z M16,26c-5.515,0-10-4.486-10-10
		c0-5.514,4.485-10,10-10c5.514,0,10,4.486,10,10C26,21.514,21.514,26,16,26z M16,9c-3.867,0-7,3.134-7,7s3.133,7,7,7
		c3.865,0,7-3.134,7-7S19.865,9,16,9z M16,22c-3.309,0-6-2.691-6-6s2.691-6,6-6s6,2.691,6,6S19.309,22,16,22z M16,13.5
		c-1.381,0-2.5,1.12-2.5,2.5c0,1.381,1.119,2.5,2.5,2.5s2.5-1.119,2.5-2.5C18.5,14.62,17.381,13.5,16,13.5z"/>
</g>
<g id="Layer_1">
</g>
</svg>
