<?xml version="1.0" encoding="iso-8859-1"?>
<!-- Generator: Adobe Illustrator 16.0.3, SVG Export Plug-In . SVG Version: 6.00 Build 0)  -->
<!DOCTYPE svg PUBLIC "-//W3C//DTD SVG 1.1//EN" "http://www.w3.org/Graphics/SVG/1.1/DTD/svg11.dtd">
<svg version="1.1" xmlns="http://www.w3.org/2000/svg" xmlns:xlink="http://www.w3.org/1999/xlink" x="0px" y="0px" width="32px"
	 height="32px" viewBox="0 0 32 32" style="enable-background:new 0 0 32 32;fill:white;" xml:space="preserve">
<g id="ic_x5F_mais_x5F_32px">
	<g>
		<path d="M26,13h-7V6c0-0.55-0.45-1-1-1h-4c-0.55,0-1,0.45-1,1v7H6c-0.55,0-1,0.45-1,1v4c0,0.55,0.45,1,1,1h7v7c0,0.55,0.45,1,1,1
			h4c0.55,0,1-0.45,1-1v-7h7c0.55,0,1-0.45,1-1v-4C27,13.45,26.55,13,26,13z"/>
	</g>
</g>
<g id="Layer_1">
</g>
</svg>
