<?xml version="1.0" encoding="iso-8859-1"?>
<!-- Generator: Adobe Illustrator 16.0.3, SVG Export Plug-In . SVG Version: 6.00 Build 0)  -->
<!DOCTYPE svg PUBLIC "-//W3C//DTD SVG 1.1//EN" "http://www.w3.org/Graphics/SVG/1.1/DTD/svg11.dtd">
<svg version="1.1" xmlns="http://www.w3.org/2000/svg" xmlns:xlink="http://www.w3.org/1999/xlink" x="0px" y="0px" width="32px"
	 height="32px" viewBox="0 0 32 32" style="enable-background:new 0 0 32 32;fill:white;" xml:space="preserve">
<g id="ic_x5F_ver_x5F_32px">
	<g>
		<path d="M28.75,15.567c0,0-4.984-8.634-12.75-8.634S3.249,15.599,3.249,15.599c-0.138,0.239-0.136,0.627,0.002,0.866
			c0,0,4.983,8.568,12.749,8.568s12.75-8.601,12.75-8.601C28.887,16.195,28.888,15.805,28.75,15.567z M16,22c-3.314,0-6-2.686-6-6
			c0-3.314,2.686-6,6-6s6,2.686,6,6C22,19.314,19.314,22,16,22z M16,13.5c-1.381,0-2.5,1.119-2.5,2.5s1.119,2.5,2.5,2.5
			s2.5-1.119,2.5-2.5S17.381,13.5,16,13.5z"/>
	</g>
</g>
<g id="Layer_1">
</g>
</svg>
